:FULLY-SPECIFIED
:FORCE-ALL-JOINTS-BE-3DOF
:DEGREES
2854
root -6.08474 13.2704 -28.8078 1241.05 -66.6334 -159.453
lfemur -65.1189 45.0153 -5.71123
ltibia 76.5578 0 0
lfoot -4.76478 -5.93203 0
ltoes -29.5403 0 0
rfemur -31.1087 -19.1863 22.2162
rtibia 88.3675 0 0
rfoot -40.5756 -28.743 0
rtoes -14.2726 0 0
lowerback 15.527 5.62672 0.856905
upperback -4.46286 7.96532 1.67834
thorax -13.8464 3.7023 -0.773444
lowerneck -2.53773 9.61228 2.21816
upperneck 9.0204 12.5238 1.98565
head 3.36108 6.32484 0.732942
lclavicle 3.36325e-14 1.84749e-14 0
lhumerus 5.27429 12.1753 84.2286
lradius 93.6128 0 0
lwrist -19.1142 0 0
lhand -39.5627 388.152 0
lfingers 7.12502 0 0
lthumb -12.5462 -662.245 0
rclavicle 3.36325e-14 1.84749e-14 0
rhumerus -59.0674 51.0479 -111.491
rradius 113.657 0 0
rwrist -83.8769 0 0
rhand 7.65071 -386.06 0
rfingers 7.12502 0 0
rthumb 32.8946 306.919 0
2855
root -6.08698 13.2669 -28.8087 1240.95 -66.6617 -159.304
lfemur -65.2676 45.0018 -5.67409
ltibia 76.7142 0 0
lfoot -4.7779 -6.01945 0
ltoes -29.3734 0 0
rfemur -31.1469 -19.188 22.29
rtibia 88.4767 0 0
rfoot -40.6146 -28.8903 0
rtoes -14.324 0 0
lowerback 15.564 5.6175 0.904813
upperback -4.47412 7.96417 1.68098
thorax -13.8755 3.69666 -0.800824
lowerneck -2.53651 9.61602 2.221
upperneck 9.0428 12.5275 1.9912
head 3.36844 6.32686 0.735222
lclavicle 2.94366e-14 1.76038e-14 0
lhumerus 5.35667 12.2136 84.2319
lradius 93.5532 0 0
lwrist -19.1187 0 0
lhand -39.5409 388.11 0
lfingers 7.12502 0 0
lthumb -12.5252 -662.286 0
rclavicle 2.94366e-14 1.76038e-14 0
rhumerus -59.1002 51.0765 -111.528
rradius 113.644 0 0
rwrist -83.8314 0 0
rhand 7.72173 -386.031 0
rfingers 7.12502 0 0
rthumb 32.9622 306.962 0
2856
root -6.08923 13.2635 -28.8097 1240.84 -66.6923 -159.146
lfemur -65.4282 44.9886 -5.63407
ltibia 76.8846 0 0
lfoot -4.79307 -6.11478 0
ltoes -29.1954 0 0
rfemur -31.1873 -19.1901 22.3686
rtibia 88.5961 0 0
rfoot -40.6592 -29.0485 0
rtoes -14.3785 0 0
lowerback 15.6032 5.60752 0.955811
upperback -4.48615 7.96277 1.684
thorax -13.9065 3.69059 -0.829654
lowerneck -2.5353 9.61999 2.22405
upperneck 9.06744 12.5315 1.99708
head 3.37656 6.329 0.737677
lclavicle 2.50147e-14 1.66868e-14 0
lhumerus 5.44517 12.2552 84.2357
lradius 93.4892 0 0
lwrist -19.1234 0 0
lhand -39.5181 388.066 0
lfingers 7.12502 0 0
lthumb -12.5032 -662.329 0
rclavicle 2.50147e-14 1.66868e-14 0
rhumerus -59.1355 51.1069 -111.568
rradius 113.63 0 0
rwrist -83.7831 0 0
rhand 7.79866 -386.001 0
rfingers 7.12502 0 0
rthumb 33.0354 307.008 0
2857
root -6.09147 13.26 -28.8107 1240.72 -66.7256 -158.977
lfemur -65.6011 44.9757 -5.59105
ltibia 77.0699 0 0
lfoot -4.81038 -6.21835 0
ltoes -29.006 0 0
rfemur -31.2301 -19.1925 22.4522
rtibia 88.726 0 0
rfoot -40.7096 -29.2178 0
rtoes -14.4361 0 0
lowerback 15.6446 5.59677 1.01
upperback -4.49897 7.96109 1.68743
thorax -13.9393 3.68407 -0.859974
lowerneck -2.53408 9.62422 2.2273
upperneck 9.0944 12.5356 2.00331
head 3.38548 6.33126 0.740311
lclavicle 2.03605e-14 1.57226e-14 0
lhumerus 5.54 12.3004 84.24
lradius 93.4207 0 0
lwrist -19.1282 0 0
lhand -39.494 388.02 0
lfingers 7.12502 0 0
lthumb -12.48 -662.373 0
rclavicle 2.03605e-14 1.57226e-14 0
rhumerus -59.1735 51.139 -111.61
rradius 113.614 0 0
rwrist -83.7318 0 0
rhand 7.8817 -385.967 0
rfingers 7.12502 0 0
rthumb 33.1144 307.057 0
